# xmcd
#
# Track frame offsets:
#  150
#  13824
#  23636
#  38856
#  52864
#  68191
#  79990
#  88158
#  99788
#  109914
#
# Disc length: 1654 seconds
#
# Revision: 0
# Processed by: cddbd v1.5.1PL2 Copyright (c) Steve Scherf et al.
# Submitted via: Collectorz.com_Music_Collector 6.9
#
DISCID=7506740a
DTITLE=JIm Rodman - Simply Pickin' (Banjo and Fiddle For the Heart)
DYEAR=1900
DGENRE=
TTITLE0=Goldrush
TTITLE1=Fiddle and Banjo
TTITLE2=Road to Columbus
TTITLE3=Huckleberry Hornpipe
TTITLE4=Cedar Hill
TTITLE5=Pigtown Fling
TTITLE6=Fireball Mail
TTITLE7=Leather Britches
TTITLE8=Fiddletime
TTITLE9=Sandy Lee
EXTD=
EXTT0=
EXTT1=
EXTT2=
EXTT3=
EXTT4=
EXTT5=
EXTT6=
EXTT7=
EXTT8=
EXTT9=
PLAYORDER=
